<svg xmlns="http://www.w3.org/2000/svg" xmlns:xlink="http://www.w3.org/1999/xlink" width="40" zoomAndPan="magnify" viewBox="0 0 30 30.000001" height="40" preserveAspectRatio="xMidYMid meet" version="1.0"><defs><clipPath id="9f6fccbd88"><path d="M 16 5 L 22 5 L 22 25.347656 L 16 25.347656 Z M 16 5 " clip-rule="nonzero"/></clipPath><clipPath id="65941a380f"><path d="M 8.214844 3.574219 L 17 3.574219 L 17 25 L 8.214844 25 Z M 8.214844 3.574219 " clip-rule="nonzero"/></clipPath><clipPath id="7d8c8cfe16"><path d="M 10.390625 12.464844 L 10.738281 12.464844 L 10.738281 12.789062 L 10.390625 12.789062 Z M 10.390625 12.464844 " clip-rule="nonzero"/></clipPath><clipPath id="d976943c1a"><path d="M 10.71875 12.703125 C 10.066406 12.917969 10.644531 12.484375 10.644531 12.484375 " clip-rule="nonzero"/></clipPath><clipPath id="a3a2bc9ca5"><path d="M 0.390625 0.464844 L 0.738281 0.464844 L 0.738281 0.789062 L 0.390625 0.789062 Z M 0.390625 0.464844 " clip-rule="nonzero"/></clipPath><clipPath id="dab516dbfa"><path d="M 0.71875 0.703125 C 0.0664062 0.917969 0.644531 0.484375 0.644531 0.484375 " clip-rule="nonzero"/></clipPath><clipPath id="1671ed2af9"><rect x="0" width="1" y="0" height="1"/></clipPath></defs><g clip-path="url(#9f6fccbd88)"><path fill="#ffffff" d="M 17.46875 5.976562 C 17.375 6.433594 17.304688 6.898438 17.277344 7.367188 C 17.261719 7.597656 17.257812 7.832031 17.261719 8.0625 C 17.269531 8.296875 17.289062 8.527344 17.320312 8.757812 C 17.386719 9.214844 17.503906 9.664062 17.683594 10.085938 C 17.863281 10.507812 18.101562 10.902344 18.394531 11.25 L 18.421875 11.28125 C 18.433594 11.292969 18.441406 11.304688 18.449219 11.3125 L 18.507812 11.378906 L 18.535156 11.410156 L 18.550781 11.425781 C 18.554688 11.429688 18.558594 11.4375 18.566406 11.441406 L 18.625 11.503906 L 18.683594 11.5625 C 18.703125 11.585938 18.726562 11.605469 18.746094 11.625 L 18.808594 11.683594 C 18.828125 11.707031 18.851562 11.726562 18.871094 11.746094 C 19.039062 11.90625 19.210938 12.0625 19.386719 12.21875 C 19.5625 12.375 19.738281 12.53125 19.910156 12.691406 C 19.953125 12.734375 19.996094 12.773438 20.039062 12.816406 C 20.0625 12.835938 20.082031 12.855469 20.105469 12.878906 L 20.292969 13.066406 L 20.324219 13.101562 C 20.335938 13.109375 20.34375 13.121094 20.355469 13.132812 L 20.417969 13.199219 C 20.457031 13.242188 20.496094 13.289062 20.539062 13.332031 L 20.566406 13.367188 C 20.578125 13.378906 20.585938 13.390625 20.597656 13.402344 L 20.652344 13.472656 C 20.671875 13.496094 20.691406 13.519531 20.710938 13.542969 L 20.765625 13.613281 L 20.824219 13.683594 C 20.839844 13.710938 20.859375 13.734375 20.875 13.757812 C 20.945312 13.859375 21.015625 13.960938 21.078125 14.066406 C 21.140625 14.167969 21.199219 14.277344 21.253906 14.382812 C 21.363281 14.601562 21.453125 14.828125 21.53125 15.058594 C 21.546875 15.117188 21.566406 15.175781 21.582031 15.234375 L 21.605469 15.324219 C 21.609375 15.335938 21.613281 15.351562 21.617188 15.367188 L 21.628906 15.410156 C 21.65625 15.527344 21.683594 15.648438 21.703125 15.769531 C 21.722656 15.886719 21.738281 16.007812 21.75 16.128906 L 21.757812 16.222656 L 21.761719 16.3125 L 21.765625 16.335938 L 21.765625 16.402344 L 21.769531 16.449219 L 21.769531 16.492188 C 21.773438 16.554688 21.769531 16.617188 21.769531 16.675781 L 21.769531 16.765625 C 21.769531 16.796875 21.765625 16.828125 21.765625 16.859375 C 21.757812 16.980469 21.75 17.101562 21.734375 17.222656 C 21.675781 17.703125 21.546875 18.175781 21.359375 18.625 C 21.308594 18.734375 21.257812 18.84375 21.203125 18.953125 C 21.148438 19.058594 21.089844 19.167969 21.023438 19.269531 C 20.960938 19.375 20.894531 19.476562 20.824219 19.574219 C 20.753906 19.671875 20.679688 19.769531 20.601562 19.859375 C 20.527344 19.953125 20.445312 20.042969 20.359375 20.132812 L 20.296875 20.195312 C 20.277344 20.21875 20.253906 20.238281 20.234375 20.261719 C 20.222656 20.269531 20.210938 20.28125 20.199219 20.292969 L 20.167969 20.320312 C 20.144531 20.34375 20.125 20.363281 20.101562 20.382812 C 19.929688 20.542969 19.75 20.699219 19.574219 20.855469 C 19.394531 21.007812 19.21875 21.160156 19.042969 21.316406 C 18.871094 21.472656 18.699219 21.628906 18.53125 21.789062 C 18.363281 21.953125 18.199219 22.117188 18.046875 22.289062 C 17.96875 22.375 17.894531 22.464844 17.820312 22.554688 C 17.804688 22.574219 17.785156 22.597656 17.769531 22.621094 L 17.714844 22.691406 L 17.664062 22.757812 C 17.648438 22.78125 17.628906 22.804688 17.613281 22.828125 C 17.480469 23.019531 17.363281 23.21875 17.265625 23.425781 C 17.171875 23.632812 17.101562 23.855469 17.058594 24.082031 C 17.039062 24.195312 17.027344 24.308594 17.023438 24.425781 C 17.019531 24.539062 17.023438 24.65625 17.039062 24.769531 L 17.042969 24.8125 L 17.042969 24.824219 L 17.046875 24.835938 L 17.050781 24.855469 L 17.054688 24.902344 L 17.058594 24.921875 C 17.058594 24.929688 17.0625 24.9375 17.0625 24.945312 L 17.082031 25.03125 L 17.101562 25.113281 C 17.128906 25.226562 17.167969 25.339844 17.207031 25.449219 C 17.15625 25.34375 17.113281 25.234375 17.074219 25.121094 L 17.046875 25.039062 L 17.023438 24.953125 C 17.019531 24.945312 17.019531 24.9375 17.015625 24.929688 L 17.011719 24.910156 L 17.003906 24.867188 L 16.996094 24.84375 L 16.996094 24.832031 L 16.992188 24.824219 L 16.984375 24.777344 C 16.964844 24.664062 16.949219 24.542969 16.945312 24.425781 L 16.945312 24.246094 C 16.945312 24.238281 16.945312 24.230469 16.949219 24.222656 L 16.949219 24.199219 L 16.953125 24.15625 C 16.953125 24.140625 16.953125 24.125 16.957031 24.109375 L 16.960938 24.066406 C 16.988281 23.828125 17.050781 23.59375 17.140625 23.371094 C 17.226562 23.148438 17.339844 22.9375 17.46875 22.734375 C 17.53125 22.632812 17.601562 22.535156 17.671875 22.4375 C 17.742188 22.339844 17.816406 22.246094 17.890625 22.15625 C 17.964844 22.0625 18.042969 21.972656 18.121094 21.886719 C 18.203125 21.796875 18.28125 21.710938 18.367188 21.625 C 18.695312 21.285156 19.042969 20.964844 19.386719 20.644531 C 19.558594 20.488281 19.730469 20.328125 19.898438 20.167969 C 19.917969 20.148438 19.9375 20.125 19.960938 20.105469 L 19.992188 20.074219 C 20 20.066406 20.011719 20.054688 20.019531 20.046875 C 20.039062 20.023438 20.0625 20.003906 20.082031 19.984375 L 20.140625 19.921875 C 20.214844 19.839844 20.289062 19.753906 20.359375 19.664062 C 20.429688 19.574219 20.5 19.484375 20.5625 19.390625 C 20.578125 19.367188 20.59375 19.34375 20.609375 19.320312 L 20.65625 19.25 C 20.6875 19.199219 20.71875 19.152344 20.746094 19.101562 C 20.859375 18.90625 20.960938 18.703125 21.046875 18.492188 C 21.132812 18.285156 21.207031 18.066406 21.261719 17.847656 C 21.289062 17.738281 21.316406 17.628906 21.335938 17.515625 C 21.355469 17.40625 21.371094 17.292969 21.386719 17.179688 C 21.398438 17.066406 21.40625 16.957031 21.414062 16.84375 C 21.414062 16.8125 21.414062 16.785156 21.417969 16.757812 L 21.417969 16.671875 C 21.417969 16.617188 21.417969 16.558594 21.417969 16.503906 L 21.414062 16.460938 L 21.414062 16.417969 L 21.410156 16.375 L 21.410156 16.332031 L 21.402344 16.25 L 21.398438 16.164062 C 21.386719 16.050781 21.371094 15.9375 21.351562 15.828125 C 21.335938 15.714844 21.3125 15.605469 21.285156 15.496094 L 21.273438 15.453125 C 21.273438 15.441406 21.269531 15.425781 21.265625 15.414062 L 21.242188 15.332031 C 21.226562 15.277344 21.210938 15.222656 21.191406 15.167969 L 21.167969 15.089844 L 21.152344 15.046875 L 21.144531 15.027344 L 21.140625 15.007812 L 21.078125 14.851562 C 21.035156 14.746094 20.988281 14.640625 20.941406 14.539062 C 20.890625 14.441406 20.835938 14.339844 20.777344 14.242188 L 20.734375 14.171875 C 20.71875 14.144531 20.703125 14.121094 20.6875 14.097656 C 20.675781 14.074219 20.660156 14.050781 20.644531 14.027344 C 20.628906 14.003906 20.613281 13.980469 20.59375 13.957031 C 20.578125 13.933594 20.5625 13.910156 20.546875 13.886719 L 20.445312 13.753906 C 20.425781 13.730469 20.40625 13.707031 20.390625 13.6875 L 20.335938 13.621094 C 20.328125 13.609375 20.320312 13.597656 20.308594 13.585938 L 20.28125 13.554688 C 20.246094 13.511719 20.207031 13.46875 20.167969 13.425781 C 20.09375 13.339844 20.011719 13.257812 19.933594 13.171875 L 19.871094 13.113281 C 19.851562 13.089844 19.832031 13.070312 19.8125 13.050781 C 19.769531 13.007812 19.726562 12.96875 19.6875 12.929688 C 19.519531 12.765625 19.347656 12.609375 19.175781 12.449219 C 19.003906 12.289062 18.832031 12.125 18.664062 11.957031 C 18.644531 11.9375 18.621094 11.917969 18.601562 11.894531 L 18.539062 11.832031 C 18.519531 11.808594 18.496094 11.789062 18.476562 11.765625 L 18.414062 11.699219 L 18.355469 11.632812 C 18.347656 11.628906 18.34375 11.621094 18.339844 11.617188 L 18.324219 11.597656 L 18.296875 11.566406 L 18.238281 11.496094 C 18.226562 11.484375 18.21875 11.472656 18.207031 11.460938 L 18.179688 11.425781 C 18.03125 11.234375 17.894531 11.035156 17.773438 10.824219 C 17.65625 10.617188 17.554688 10.398438 17.46875 10.171875 L 17.449219 10.128906 C 17.449219 10.125 17.445312 10.117188 17.441406 10.109375 L 17.433594 10.089844 L 17.40625 10.003906 L 17.390625 9.960938 C 17.386719 9.945312 17.382812 9.933594 17.378906 9.917969 L 17.351562 9.832031 C 17.34375 9.800781 17.332031 9.773438 17.324219 9.746094 L 17.300781 9.660156 L 17.28125 9.570312 L 17.261719 9.484375 C 17.207031 9.25 17.171875 9.015625 17.148438 8.777344 C 17.128906 8.539062 17.121094 8.300781 17.125 8.0625 C 17.132812 7.828125 17.148438 7.589844 17.179688 7.355469 C 17.234375 6.886719 17.335938 6.425781 17.46875 5.976562 Z M 17.46875 5.976562 " fill-opacity="1" fill-rule="nonzero"/></g><path fill="#ffffff" d="M 16.132812 4.953125 C 16.109375 5.011719 16.089844 5.070312 16.070312 5.128906 C 16.046875 5.1875 16.027344 5.246094 16.007812 5.308594 C 16.003906 5.316406 15.992188 5.324219 15.984375 5.320312 C 15.972656 5.316406 15.96875 5.304688 15.972656 5.296875 C 15.972656 5.292969 15.972656 5.292969 15.972656 5.292969 C 15.996094 5.234375 16.023438 5.179688 16.050781 5.121094 C 16.078125 5.066406 16.105469 5.007812 16.132812 4.953125 Z M 16.132812 4.953125 " fill-opacity="1" fill-rule="nonzero"/><path fill="#ffffff" d="M 15.773438 6.121094 C 15.746094 6.242188 15.71875 6.367188 15.695312 6.492188 C 15.671875 6.613281 15.652344 6.738281 15.636719 6.863281 C 15.628906 6.910156 15.585938 6.945312 15.535156 6.9375 C 15.488281 6.929688 15.453125 6.886719 15.460938 6.835938 C 15.460938 6.835938 15.460938 6.832031 15.460938 6.832031 C 15.488281 6.707031 15.519531 6.582031 15.554688 6.457031 C 15.585938 6.332031 15.625 6.210938 15.664062 6.089844 C 15.675781 6.058594 15.707031 6.042969 15.738281 6.054688 C 15.765625 6.0625 15.78125 6.09375 15.773438 6.121094 Z M 15.773438 6.121094 " fill-opacity="1" fill-rule="nonzero"/><path fill="#ffffff" d="M 15.574219 7.695312 L 15.570312 7.882812 C 15.570312 7.945312 15.570312 8.003906 15.570312 8.066406 C 15.570312 8.128906 15.574219 8.191406 15.578125 8.253906 C 15.582031 8.316406 15.585938 8.375 15.59375 8.4375 C 15.597656 8.503906 15.550781 8.5625 15.484375 8.566406 C 15.421875 8.574219 15.363281 8.527344 15.355469 8.460938 C 15.351562 8.398438 15.34375 8.332031 15.34375 8.265625 C 15.339844 8.203125 15.335938 8.136719 15.332031 8.074219 C 15.332031 8.007812 15.328125 7.945312 15.328125 7.878906 C 15.328125 7.816406 15.332031 7.75 15.335938 7.683594 C 15.339844 7.617188 15.398438 7.570312 15.464844 7.574219 C 15.527344 7.578125 15.578125 7.632812 15.574219 7.695312 Z M 15.574219 7.695312 " fill-opacity="1" fill-rule="nonzero"/><path fill="#ffffff" d="M 15.742188 9.253906 C 15.808594 9.492188 15.890625 9.722656 15.996094 9.949219 C 16.023438 10.007812 15.996094 10.078125 15.9375 10.105469 C 15.878906 10.132812 15.808594 10.105469 15.78125 10.046875 C 15.671875 9.8125 15.582031 9.566406 15.515625 9.316406 C 15.496094 9.253906 15.535156 9.1875 15.597656 9.171875 C 15.660156 9.152344 15.722656 9.191406 15.742188 9.253906 Z M 15.742188 9.253906 " fill-opacity="1" fill-rule="nonzero"/><path fill="#ffffff" d="M 16.410156 10.664062 C 16.445312 10.714844 16.480469 10.765625 16.519531 10.816406 C 16.554688 10.867188 16.59375 10.917969 16.628906 10.96875 C 16.707031 11.070312 16.785156 11.167969 16.863281 11.269531 C 16.902344 11.320312 16.894531 11.394531 16.839844 11.433594 C 16.789062 11.472656 16.714844 11.464844 16.675781 11.414062 C 16.597656 11.3125 16.519531 11.214844 16.441406 11.113281 C 16.402344 11.058594 16.367188 11.007812 16.328125 10.957031 C 16.289062 10.90625 16.253906 10.855469 16.214844 10.800781 C 16.179688 10.746094 16.191406 10.671875 16.246094 10.636719 C 16.296875 10.597656 16.371094 10.613281 16.410156 10.664062 Z M 16.410156 10.664062 " fill-opacity="1" fill-rule="nonzero"/><path fill="#ffffff" d="M 17.386719 11.9375 C 17.542969 12.140625 17.695312 12.347656 17.835938 12.5625 C 17.871094 12.617188 17.859375 12.6875 17.804688 12.726562 C 17.75 12.761719 17.675781 12.746094 17.640625 12.691406 C 17.503906 12.484375 17.355469 12.28125 17.199219 12.082031 C 17.160156 12.027344 17.171875 11.953125 17.222656 11.914062 C 17.273438 11.875 17.347656 11.886719 17.386719 11.9375 Z M 17.386719 11.9375 " fill-opacity="1" fill-rule="nonzero"/><path fill="#ffffff" d="M 18.261719 13.316406 C 18.367188 13.554688 18.457031 13.800781 18.523438 14.050781 C 18.542969 14.113281 18.503906 14.179688 18.441406 14.195312 C 18.378906 14.210938 18.3125 14.175781 18.296875 14.113281 C 18.230469 13.875 18.148438 13.640625 18.046875 13.414062 C 18.019531 13.355469 18.042969 13.285156 18.105469 13.257812 C 18.164062 13.230469 18.234375 13.257812 18.261719 13.316406 Z M 18.261719 13.316406 " fill-opacity="1" fill-rule="nonzero"/><path fill="#ffffff" d="M 18.675781 14.90625 C 18.695312 15.167969 18.699219 15.425781 18.679688 15.683594 C 18.675781 15.75 18.617188 15.800781 18.550781 15.792969 C 18.488281 15.789062 18.4375 15.734375 18.441406 15.667969 C 18.460938 15.421875 18.460938 15.171875 18.4375 14.925781 C 18.433594 14.863281 18.480469 14.804688 18.546875 14.800781 C 18.613281 14.792969 18.667969 14.84375 18.675781 14.90625 Z M 18.675781 14.90625 " fill-opacity="1" fill-rule="nonzero"/><path fill="#ffffff" d="M 18.542969 16.542969 C 18.480469 16.796875 18.398438 17.042969 18.300781 17.28125 C 18.273438 17.34375 18.203125 17.371094 18.144531 17.34375 C 18.085938 17.320312 18.054688 17.25 18.082031 17.191406 C 18.175781 16.960938 18.253906 16.726562 18.3125 16.488281 C 18.328125 16.421875 18.390625 16.382812 18.457031 16.398438 C 18.519531 16.414062 18.558594 16.480469 18.542969 16.542969 Z M 18.542969 16.542969 " fill-opacity="1" fill-rule="nonzero"/><path fill="#ffffff" d="M 17.898438 18.054688 C 17.761719 18.273438 17.605469 18.480469 17.4375 18.679688 C 17.394531 18.726562 17.320312 18.734375 17.269531 18.691406 C 17.222656 18.648438 17.214844 18.574219 17.257812 18.523438 C 17.421875 18.335938 17.566406 18.136719 17.699219 17.925781 C 17.734375 17.871094 17.808594 17.855469 17.863281 17.890625 C 17.917969 17.925781 17.933594 18 17.898438 18.054688 Z M 17.898438 18.054688 " fill-opacity="1" fill-rule="nonzero"/><path fill="#ffffff" d="M 16.8125 19.28125 C 16.761719 19.324219 16.710938 19.363281 16.65625 19.402344 C 16.632812 19.421875 16.605469 19.441406 16.578125 19.460938 L 16.539062 19.488281 C 16.527344 19.496094 16.511719 19.503906 16.5 19.515625 L 16.183594 19.730469 C 16.128906 19.765625 16.054688 19.75 16.019531 19.695312 C 15.980469 19.640625 15.996094 19.570312 16.050781 19.53125 L 16.367188 19.320312 C 16.378906 19.3125 16.390625 19.300781 16.402344 19.292969 L 16.441406 19.265625 C 16.46875 19.25 16.492188 19.230469 16.515625 19.210938 C 16.566406 19.175781 16.613281 19.136719 16.664062 19.097656 C 16.714844 19.058594 16.789062 19.066406 16.828125 19.117188 C 16.871094 19.167969 16.863281 19.242188 16.8125 19.28125 Z M 16.8125 19.28125 " fill-opacity="1" fill-rule="nonzero"/><path fill="#ffffff" d="M 15.46875 20.1875 C 15.257812 20.328125 15.046875 20.464844 14.839844 20.609375 C 14.785156 20.644531 14.714844 20.632812 14.675781 20.578125 C 14.636719 20.527344 14.652344 20.453125 14.707031 20.414062 C 14.914062 20.269531 15.128906 20.128906 15.339844 19.992188 C 15.394531 19.953125 15.46875 19.972656 15.503906 20.027344 C 15.539062 20.082031 15.523438 20.152344 15.46875 20.1875 Z M 15.46875 20.1875 " fill-opacity="1" fill-rule="nonzero"/><path fill="#ffffff" d="M 14.167969 21.113281 C 14.121094 21.152344 14.074219 21.195312 14.027344 21.234375 C 13.980469 21.277344 13.933594 21.316406 13.890625 21.359375 C 13.84375 21.402344 13.800781 21.445312 13.757812 21.492188 C 13.710938 21.535156 13.667969 21.578125 13.625 21.621094 C 13.578125 21.667969 13.503906 21.667969 13.457031 21.621094 C 13.414062 21.578125 13.410156 21.507812 13.453125 21.460938 C 13.496094 21.410156 13.539062 21.363281 13.585938 21.320312 C 13.632812 21.273438 13.679688 21.230469 13.726562 21.1875 C 13.773438 21.144531 13.824219 21.097656 13.871094 21.058594 C 13.921875 21.015625 13.96875 20.972656 14.019531 20.933594 C 14.070312 20.890625 14.144531 20.898438 14.183594 20.949219 C 14.226562 20.996094 14.21875 21.074219 14.167969 21.113281 Z M 14.167969 21.113281 " fill-opacity="1" fill-rule="nonzero"/><path fill="#ffffff" d="M 13.105469 22.261719 C 13.039062 22.367188 12.980469 22.472656 12.929688 22.585938 C 12.875 22.699219 12.832031 22.816406 12.800781 22.933594 C 12.792969 22.964844 12.761719 22.980469 12.730469 22.972656 C 12.703125 22.964844 12.6875 22.9375 12.691406 22.910156 C 12.714844 22.78125 12.75 22.65625 12.792969 22.53125 C 12.839844 22.410156 12.890625 22.289062 12.953125 22.175781 C 12.976562 22.132812 13.027344 22.117188 13.070312 22.136719 C 13.113281 22.160156 13.128906 22.214844 13.105469 22.253906 C 13.105469 22.257812 13.105469 22.261719 13.105469 22.261719 Z M 13.105469 22.261719 " fill-opacity="1" fill-rule="nonzero"/><path fill="#ffffff" d="M 12.71875 23.765625 C 12.722656 23.828125 12.730469 23.890625 12.738281 23.953125 C 12.746094 24.011719 12.757812 24.074219 12.769531 24.136719 C 12.753906 24.078125 12.734375 24.015625 12.71875 23.953125 C 12.707031 23.894531 12.695312 23.832031 12.683594 23.769531 C 12.679688 23.761719 12.6875 23.75 12.699219 23.75 C 12.707031 23.746094 12.71875 23.753906 12.71875 23.765625 Z M 12.71875 23.765625 " fill-opacity="1" fill-rule="nonzero"/><g clip-path="url(#65941a380f)"><path fill="#ffffff" d="M 15.699219 3.574219 C 15.445312 4.019531 15.214844 4.480469 15.019531 4.953125 C 14.820312 5.421875 14.660156 5.910156 14.546875 6.40625 C 14.492188 6.652344 14.449219 6.902344 14.417969 7.15625 C 14.386719 7.40625 14.375 7.660156 14.375 7.910156 C 14.378906 8.414062 14.449219 8.917969 14.59375 9.398438 L 14.617188 9.488281 L 14.632812 9.53125 C 14.636719 9.546875 14.644531 9.5625 14.648438 9.578125 L 14.679688 9.664062 L 14.695312 9.710938 L 14.703125 9.730469 C 14.703125 9.738281 14.707031 9.746094 14.710938 9.753906 L 14.777344 9.929688 L 14.851562 10.105469 C 14.953125 10.335938 15.0625 10.566406 15.171875 10.800781 C 15.28125 11.03125 15.394531 11.261719 15.5 11.5 C 15.554688 11.617188 15.609375 11.738281 15.65625 11.859375 C 15.683594 11.917969 15.707031 11.980469 15.730469 12.039062 C 15.753906 12.101562 15.777344 12.164062 15.800781 12.222656 L 15.816406 12.269531 L 15.828125 12.292969 C 15.828125 12.300781 15.832031 12.308594 15.835938 12.316406 L 15.882812 12.457031 C 15.886719 12.472656 15.894531 12.488281 15.898438 12.503906 L 15.925781 12.597656 C 15.9375 12.628906 15.945312 12.660156 15.957031 12.691406 L 15.980469 12.789062 L 16.007812 12.886719 L 16.03125 12.980469 C 16.058594 13.109375 16.085938 13.242188 16.105469 13.371094 C 16.125 13.503906 16.140625 13.636719 16.152344 13.765625 C 16.171875 14.03125 16.175781 14.296875 16.164062 14.5625 L 16.160156 14.613281 L 16.160156 14.636719 L 16.15625 14.660156 L 16.148438 14.761719 L 16.140625 14.859375 L 16.136719 14.882812 L 16.132812 14.910156 L 16.128906 14.957031 C 16.109375 15.089844 16.089844 15.21875 16.066406 15.351562 C 16.042969 15.480469 16.011719 15.609375 15.980469 15.738281 C 15.949219 15.867188 15.910156 15.992188 15.871094 16.117188 C 15.832031 16.246094 15.785156 16.367188 15.738281 16.492188 C 15.691406 16.613281 15.636719 16.734375 15.582031 16.855469 C 15.359375 17.335938 15.078125 17.785156 14.742188 18.195312 C 14.660156 18.296875 14.574219 18.398438 14.484375 18.496094 C 14.390625 18.589844 14.300781 18.683594 14.203125 18.777344 C 14.105469 18.867188 14.007812 18.953125 13.90625 19.039062 C 13.800781 19.121094 13.695312 19.199219 13.589844 19.277344 C 13.480469 19.355469 13.371094 19.425781 13.257812 19.492188 C 13.226562 19.511719 13.199219 19.527344 13.171875 19.542969 C 13.140625 19.558594 13.113281 19.578125 13.082031 19.59375 L 12.996094 19.640625 C 12.96875 19.65625 12.9375 19.667969 12.910156 19.683594 C 12.679688 19.804688 12.445312 19.914062 12.210938 20.023438 C 11.980469 20.132812 11.746094 20.242188 11.515625 20.351562 C 11.285156 20.464844 11.058594 20.578125 10.832031 20.699219 C 10.609375 20.820312 10.386719 20.945312 10.171875 21.082031 C 10.066406 21.148438 9.960938 21.222656 9.859375 21.296875 C 9.753906 21.367188 9.65625 21.445312 9.554688 21.527344 C 9.457031 21.605469 9.363281 21.691406 9.273438 21.777344 C 9.183594 21.863281 9.09375 21.957031 9.011719 22.050781 C 8.929688 22.148438 8.851562 22.246094 8.78125 22.351562 C 8.710938 22.457031 8.644531 22.5625 8.585938 22.675781 C 8.527344 22.789062 8.472656 22.902344 8.429688 23.023438 L 8.367188 23.203125 C 8.351562 23.265625 8.332031 23.324219 8.320312 23.386719 C 8.289062 23.511719 8.269531 23.636719 8.253906 23.765625 C 8.242188 23.890625 8.234375 24.019531 8.230469 24.148438 C 8.222656 24.019531 8.222656 23.890625 8.226562 23.761719 L 8.230469 23.667969 C 8.234375 23.632812 8.238281 23.601562 8.242188 23.570312 C 8.242188 23.539062 8.25 23.503906 8.253906 23.472656 L 8.257812 23.425781 L 8.265625 23.378906 C 8.273438 23.34375 8.277344 23.3125 8.285156 23.28125 L 8.292969 23.234375 C 8.296875 23.21875 8.300781 23.203125 8.304688 23.1875 L 8.328125 23.089844 L 8.355469 22.996094 C 8.394531 22.875 8.441406 22.75 8.496094 22.632812 C 8.550781 22.511719 8.613281 22.398438 8.679688 22.285156 C 8.75 22.175781 8.824219 22.066406 8.90625 21.964844 C 8.984375 21.859375 9.070312 21.761719 9.160156 21.667969 C 9.25 21.570312 9.34375 21.480469 9.441406 21.394531 C 9.636719 21.21875 9.84375 21.058594 10.058594 20.910156 C 10.164062 20.835938 10.273438 20.765625 10.386719 20.695312 C 10.496094 20.625 10.605469 20.558594 10.71875 20.496094 C 11.167969 20.234375 11.628906 20.003906 12.089844 19.773438 C 12.320312 19.65625 12.546875 19.542969 12.769531 19.421875 L 12.855469 19.375 L 12.933594 19.328125 C 12.960938 19.3125 12.988281 19.296875 13.015625 19.28125 C 13.042969 19.265625 13.070312 19.25 13.09375 19.234375 C 13.203125 19.167969 13.304688 19.097656 13.40625 19.023438 C 13.808594 18.726562 14.167969 18.375 14.480469 17.984375 C 14.558594 17.886719 14.632812 17.785156 14.707031 17.683594 C 14.777344 17.582031 14.84375 17.476562 14.910156 17.371094 C 14.976562 17.265625 15.039062 17.15625 15.097656 17.046875 C 15.109375 17.019531 15.125 16.988281 15.140625 16.960938 L 15.183594 16.878906 C 15.210938 16.824219 15.238281 16.765625 15.261719 16.710938 C 15.367188 16.480469 15.457031 16.25 15.535156 16.011719 C 15.570312 15.890625 15.605469 15.769531 15.636719 15.648438 C 15.667969 15.53125 15.695312 15.40625 15.71875 15.285156 C 15.742188 15.164062 15.761719 15.039062 15.773438 14.914062 L 15.785156 14.84375 L 15.785156 14.820312 L 15.796875 14.730469 L 15.804688 14.636719 L 15.804688 14.589844 L 15.808594 14.542969 C 15.824219 14.292969 15.820312 14.042969 15.804688 13.796875 C 15.792969 13.671875 15.777344 13.546875 15.761719 13.425781 L 15.746094 13.332031 C 15.742188 13.300781 15.734375 13.269531 15.730469 13.242188 C 15.726562 13.226562 15.726562 13.210938 15.722656 13.195312 L 15.710938 13.148438 C 15.707031 13.117188 15.699219 13.089844 15.695312 13.058594 L 15.671875 12.96875 L 15.648438 12.875 L 15.625 12.785156 C 15.617188 12.757812 15.609375 12.726562 15.601562 12.695312 L 15.574219 12.605469 C 15.570312 12.589844 15.5625 12.574219 15.558594 12.5625 L 15.542969 12.515625 L 15.515625 12.425781 C 15.511719 12.417969 15.511719 12.414062 15.507812 12.40625 L 15.5 12.382812 L 15.484375 12.339844 C 15.460938 12.277344 15.441406 12.21875 15.417969 12.160156 C 15.394531 12.101562 15.375 12.042969 15.351562 11.984375 C 15.304688 11.867188 15.253906 11.75 15.203125 11.632812 C 15.101562 11.398438 14.996094 11.167969 14.886719 10.929688 C 14.78125 10.695312 14.675781 10.460938 14.578125 10.21875 L 14.503906 10.039062 L 14.4375 9.851562 C 14.433594 9.84375 14.433594 9.835938 14.429688 9.828125 L 14.40625 9.757812 L 14.378906 9.664062 C 14.371094 9.648438 14.367188 9.632812 14.363281 9.617188 L 14.347656 9.570312 L 14.324219 9.472656 C 14.253906 9.21875 14.207031 8.957031 14.175781 8.695312 C 14.148438 8.433594 14.136719 8.171875 14.144531 7.910156 L 14.148438 7.8125 L 14.148438 7.738281 L 14.152344 7.714844 C 14.15625 7.648438 14.160156 7.582031 14.167969 7.519531 L 14.1875 7.324219 L 14.214844 7.128906 C 14.253906 6.871094 14.308594 6.617188 14.378906 6.363281 C 14.445312 6.113281 14.527344 5.867188 14.621094 5.625 L 14.65625 5.535156 L 14.671875 5.488281 C 14.679688 5.472656 14.683594 5.457031 14.691406 5.445312 L 14.726562 5.355469 L 14.746094 5.308594 L 14.757812 5.285156 L 14.765625 5.265625 L 14.84375 5.085938 L 14.925781 4.910156 C 15.152344 4.445312 15.414062 4 15.699219 3.574219 Z M 15.699219 3.574219 " fill-opacity="1" fill-rule="nonzero"/></g><g clip-path="url(#7d8c8cfe16)"><g clip-path="url(#d976943c1a)"><g transform="matrix(1, 0, 0, 1, 10, 12)"><g clip-path="url(#1671ed2af9)"><g clip-path="url(#a3a2bc9ca5)"><g clip-path="url(#dab516dbfa)"><rect x="-16.6" width="43.2" fill="#020202" height="43.200001" y="-18.6" fill-opacity="1"/></g></g></g></g></g></g></svg>